<?xml version="1.0" encoding="iso-8859-1"?>
<!-- Generator: Adobe Illustrator 18.1.1, SVG Export Plug-In . SVG Version: 6.00 Build 0)  -->
<svg version="1.1" id="Capa_1" xmlns="http://www.w3.org/2000/svg" xmlns:xlink="http://www.w3.org/1999/xlink" x="0px" y="0px"
	 viewBox="0 0 26.794 26.794" style="enable-background:new 0 0 26.794 26.794;" xml:space="preserve">
<g>
	<path d="M0,24.708C0,14.358,8.256,5.901,18.643,5.567V2.038c0-0.254,0.154-0.48,0.387-0.576c0.23-0.096,0.498-0.041,0.68,0.135
		l6.904,6.938c0.24,0.24,0.24,0.633-0.004,0.875l-6.904,6.916c-0.178,0.186-0.443,0.238-0.676,0.135
		c-0.232-0.09-0.387-0.318-0.387-0.568v-3.932c-6.799,0.266-12.25,5.883-12.25,12.795c0,0.348-0.279,0.623-0.623,0.623H0.621
		C0.277,25.378,0,25.05,0,24.708z"/>
	<g>
	</g>
	<g>
	</g>
	<g>
	</g>
	<g>
	</g>
	<g>
	</g>
	<g>
	</g>
	<g>
	</g>
	<g>
	</g>
	<g>
	</g>
	<g>
	</g>
	<g>
	</g>
	<g>
	</g>
	<g>
	</g>
	<g>
	</g>
	<g>
	</g>
</g>
<g>
</g>
<g>
</g>
<g>
</g>
<g>
</g>
<g>
</g>
<g>
</g>
<g>
</g>
<g>
</g>
<g>
</g>
<g>
</g>
<g>
</g>
<g>
</g>
<g>
</g>
<g>
</g>
<g>
</g>
</svg>
