<?xml version="1.0" encoding="utf-8"?>
<!-- Generator: Adobe Illustrator 16.0.0, SVG Export Plug-In . SVG Version: 6.00 Build 0)  -->
<!DOCTYPE svg PUBLIC "-//W3C//DTD SVG 1.1//EN" "http://www.w3.org/Graphics/SVG/1.1/DTD/svg11.dtd">
<svg version="1.1" id="Layer_1" xmlns="http://www.w3.org/2000/svg" xmlns:xlink="http://www.w3.org/1999/xlink" x="0px" y="0px"
	 width="64px" height="64px" viewBox="-16 -16 64 64" enable-background="new -16 -16 64 64" xml:space="preserve">
<path opacity="0.25" fill="#0FDBEF" enable-background="new    " d="M16-16C-1.673-16-16-1.673-16,16c0,17.672,14.327,32,32,32
	c17.672,0,32-14.328,32-32C48-1.673,33.672-16,16-16 M16-8C29.254-8,40,2.745,40,16c0,13.254-10.746,24-24,24
	C2.745,40-8,29.254-8,16C-8,2.745,2.745-8,16-8"/>
<path fill="#0FDBEF" d="M16-16c17.672,0,32,14.327,32,32h-8C40,2.745,29.254-8,16-8V-16z">
<animateTransform  fill="remove" type="rotate" to="360 16 16" from="0 16 16" restart="always" additive="replace" accumulate="none" calcMode="linear" repeatCount="indefinite" dur="0.8s" attributeName="transform">
		</animateTransform>
</path>
</svg>
