<?xml version="1.0" encoding="iso-8859-1"?>
<!-- Generator: Adobe Illustrator 19.0.0, SVG Export Plug-In . SVG Version: 6.00 Build 0)  -->
<svg xmlns="http://www.w3.org/2000/svg" xmlns:xlink="http://www.w3.org/1999/xlink" version="1.1" id="Layer_1" x="0px" y="0px" viewBox="0 0 339.759 339.759" style="enable-background:new 0 0 339.759 339.759;" xml:space="preserve" width="512" height="512">
<g>
	<path style="fill:#51A7A6;" d="M169.879,245.807c-48.988,0-101.713,14.7-101.713,46.976c0,32.276,52.725,46.977,101.713,46.977   s101.713-14.7,101.713-46.977C271.593,260.507,218.868,245.807,169.879,245.807z"/>
	<path style="fill:#42D4CB;" d="M169.879,245.807c-48.988,0-101.713,14.7-101.713,46.976c0,32.276,52.725,46.977,101.713,46.977   V245.807z"/>
	<path style="fill:#C6C7C6;" d="M189.935,0h-40.11C87.768,0,37.282,50.607,37.282,112.663c0,27.295,9.905,53.694,27.892,74.224   l93.423,106.665c2.849,3.251,6.96,5.13,11.283,5.13s8.434-1.857,11.283-5.108l93.423-106.631   c17.987-20.53,27.892-46.987,27.892-74.282C302.477,50.605,251.991,0,189.935,0z"/>
	<path style="fill:#DCDCDC;" d="M169.879,0h-20.055C87.768,0,37.282,50.607,37.282,112.663c0,27.295,9.905,53.694,27.892,74.224   l93.423,106.665c2.849,3.251,6.96,5.13,11.283,5.13V0z"/>
	<path style="fill:#d35400;" d="M140.379,51.5c-9.665,0-17.5,7.835-17.5,17.5v64c0,3.631,1.107,7.003,3,9.8V190   c0,8.284,6.716,15,15,15s15-6.716,15-15v-48.891c1.271-2.425,2-5.18,2-8.109V69C157.879,59.335,150.044,51.5,140.379,51.5z"/>
	<path style="fill:#d35400;" d="M206.879,54c-1.568,0-3.079,0.242-4.5,0.689c-1.421-0.446-2.932-0.689-4.5-0.689   c-1.756,0-3.434,0.317-5,0.872c-1.566-0.554-3.244-0.872-5-0.872c-8.284,0-15,6.716-15,15v36c0,6.528,4.178,12.067,10,14.128V190   c0,8.284,6.716,15,15,15s15-6.716,15-15v-71.257c5.296-2.315,9-7.594,9-13.743V69C221.879,60.716,215.164,54,206.879,54z"/>
</g>
</svg>
