<svg xmlns="http://www.w3.org/2000/svg" style="display: none;">
  
    <symbol id="icon-walking" viewBox="0 0 512 512">
      <path d="M223.821,76.022c10.333-0.333,19-4.333,26-12s10.333-16.667,10-27
			c-0.333-10.335-4.167-19.168-11.5-26.5c-7.333-7.333-16.167-10.833-26.5-10.5s-19,4.333-26,12s-10.5,16.667-10.5,27
			s3.833,19.167,11.5,26.5S213.488,76.355,223.821,76.022z"/>
		  <path d="M350.321,202.522l-55-30l-45-72c-8.667-10.667-19.333-16-32-16c-8.667,0-17,3.667-25,11l-68,69
			c-2,2.667-3.333,5.667-4,9l-9,77v2c0,4.666,1.667,8.666,5,12c3.333,3.332,7.333,5,12,5s8.5-1.668,11.5-5c3-3.334,4.833-7,5.5-11
			l7-66l24-24l-22,184l-39,87.001c-1.333,4-2,7.658-2,11.002c0,7.322,2.5,13.5,7.5,18.5s11.167,7.164,18.5,6.5
			c10,0,17.333-4.678,22-14l42-94.002c0-0.67,0.333-1.835,1-3.5c0.668-1.67,1.335-3.17,2-4.5c0.667-1.335,1-2.67,1-4l5-45.001
			l43,148.003c4.667,12,13,17.666,25,17c6.667,0,12.5-2.5,17.5-7.5s7.5-11.178,7.5-18.5c0-0.678-0.167-1.5-0.5-2.5
			s-0.5-1.836-0.5-2.502l-60-205.001l7-67l17,27c1.333,2,3,3.667,5,5l59,33c4,1.333,6.667,2,8,2c4.667,0,8.667-1.833,12-5.5
			c3.333-3.668,5-7.834,5-12.5C358.321,210.522,355.654,205.855,350.321,202.522z"/>
    </symbol>
  
    <symbol id="icon-driving" viewBox="0 0 512 512">
      <path d="M405.45,51c-5.101-15.3-20.4-25.5-35.7-25.5H89.25c-17.85,0-30.6,10.2-35.7,25.5L0,204v204c0,15.3,10.2,25.5,25.5,25.5H51
			c15.3,0,25.5-10.2,25.5-25.5v-25.5h306V408c0,15.3,10.2,25.5,25.5,25.5h25.5c15.3,0,25.5-10.2,25.5-25.5V204L405.45,51z
			 M89.25,306C68.85,306,51,288.15,51,267.75s17.85-38.25,38.25-38.25s38.25,17.85,38.25,38.25S109.65,306,89.25,306z M369.75,306
			c-20.4,0-38.25-17.85-38.25-38.25s17.85-38.25,38.25-38.25S408,247.35,408,267.75S390.15,306,369.75,306z M51,178.5L89.25,63.75
			h280.5L408,178.5H51z"/>
    </symbol>
  
    <symbol id="icon-transit" viewBox="0 0 45.437 45.437">
      <path d="M41.403,11.11c-0.371-3.627-0.962-6.451-1.897-7.561c-3.855-4.564-30.859-4.898-33.925,0
      c-0.75,1.2-1.276,4.014-1.629,7.567c-1.139,0.134-2.026,1.093-2.026,2.267v4.443c0,0.988,0.626,1.821,1.5,2.146
      c-0.207,6.998-0.039,14.299,0.271,17.93c0,2.803,1.883,2.338,1.883,2.338h1.765v3.026c0,1.2,1.237,2.171,2.761,2.171
      c1.526,0,2.763-0.971,2.763-2.171V40.24h20.534v3.026c0,1.2,1.236,2.171,2.762,2.171c1.524,0,2.761-0.971,2.761-2.171V40.24h0.58
      c0,0,2.216,0.304,2.358-1.016c0-3.621,0.228-11.646,0.04-19.221c0.929-0.291,1.607-1.147,1.607-2.177v-4.443
      C43.512,12.181,42.582,11.206,41.403,11.11z M12.176,4.2h20.735v3.137H12.176V4.2z M12.472,36.667c-1.628,0-2.947-1.32-2.947-2.948
      c0-1.627,1.319-2.946,2.947-2.946s2.948,1.319,2.948,2.946C15.42,35.347,14.101,36.667,12.472,36.667z M32.8,36.667
      c-1.627,0-2.949-1.32-2.949-2.948c0-1.627,1.321-2.946,2.949-2.946s2.947,1.319,2.947,2.946
      C35.748,35.347,34.428,36.667,32.8,36.667z M36.547,23.767H8.54V9.077h28.007V23.767z"/>
    </symbol>
  
</svg>
